<?xml version="1.0" encoding="UTF-8" standalone="no"?>
<svg
   version="1.1"
   id="svg42"
   width="500"
   height="310"
   viewBox="0 0 500 310"
   sodipodi:docname="camels.svg"
   inkscape:version="1.1.2 (b8e25be833, 2022-02-05)"
   xmlns:inkscape="http://www.inkscape.org/namespaces/inkscape"
   xmlns:sodipodi="http://sodipodi.sourceforge.net/DTD/sodipodi-0.dtd"
   xmlns="http://www.w3.org/2000/svg"
   xmlns:svg="http://www.w3.org/2000/svg"
   xmlns:rdf="http://www.w3.org/1999/02/22-rdf-syntax-ns#"
   xmlns:cc="http://creativecommons.org/ns#"
   xmlns:dc="http://purl.org/dc/elements/1.1/">
  <metadata
     id="metadata48">
    <rdf:RDF>
      <cc:Work
         rdf:about="">
        <dc:format>image/svg+xml</dc:format>
        <dc:type
           rdf:resource="http://purl.org/dc/dcmitype/StillImage" />
      </cc:Work>
    </rdf:RDF>
  </metadata>
  <defs
     id="defs46" />
  <sodipodi:namedview
     pagecolor="#ffffff"
     bordercolor="#666666"
     borderopacity="1"
     objecttolerance="10"
     gridtolerance="10"
     guidetolerance="10"
     inkscape:pageopacity="0"
     inkscape:pageshadow="2"
     inkscape:window-width="1366"
     inkscape:window-height="705"
     id="namedview44"
     showgrid="false"
     inkscape:zoom="2.6677419"
     inkscape:cx="249.83676"
     inkscape:cy="154.81258"
     inkscape:window-x="-8"
     inkscape:window-y="-8"
     inkscape:window-maximized="1"
     inkscape:current-layer="g50"
     inkscape:document-rotation="0"
     inkscape:pagecheckerboard="0" />
  <g class="camel-ride">
     inkscape:groupmode="layer"
     inkscape:label="Image"
     id="g50">
     
    <path
       id="path56"
       style="fill:#000000"
       d="m 85.87665,248.64957 c -3.019787,-10.07543 -8.333095,-20.72038 -8.898213,-29.36126 4.720215,-5.90567 4.935305,-23.75463 0.387025,-28.82243 0.557701,6.67948 -5.72892,13.59595 -4.715934,2.64239 -0.38651,-10.77454 2.589837,-19.07579 3.881263,-28.69365 4.021726,2.58893 14.50395,-9.62474 7.641481,-12.59069 7.179226,0.69785 15.772452,-9.99252 7.203704,-13.5362 9.151274,-13.10189 16.414574,3.32205 30.244934,-4.03344 5.9804,-8.8438 6.51356,-16.57823 10.62303,-27.70315 -1.9836,-10.186189 6.50704,-16.714139 13.4492,-6.15368 -3.19216,2.02066 -0.16109,12.06808 -5.30668,10.67831 -4.29728,5.9008 6.97087,9.83407 0.0927,8.86679 -2.81396,10.78184 16.98933,-1.63051 9.44026,10.84744 4.98479,8.68153 6.36202,20.35567 18.48419,23.96696 7.73574,11.6413 20.68981,-6.05953 21.29218,-12.78098 3.84896,-5.97462 7.7724,-22.13586 14.283,-17.19284 4.00048,8.39054 21.73015,13.89193 6.73536,19.62845 -11.81651,3.74009 -10.1061,19.62595 -21.30703,25.22249 -4.84296,11.39731 -25.1646,2.47078 -29.75185,15.1581 -9.22042,8.44208 -0.42963,20.24659 -1.46639,30.63667 -3.95402,4.95301 -2.96252,15.65879 -4.37986,25.27301 0.36588,8.02873 -16.78577,9.29568 -18.06112,4.1609 -4.9814,-13.28407 4.91363,-24.76347 7.47483,-37.76476 4.87409,-11.70111 -2.30404,-19.25616 -14.48372,-16.62887 -10.53179,0.0155 -20.96363,-6.44526 -25.52164,6.7976 -10.231743,8.75038 -10.70274,25.68768 -1.87229,35.23256 13.31259,-2.20463 4.67368,4.62854 1.90352,6.54129 9.39727,13.18828 -10.614668,8.429 -10.181647,-1.21554 -5.844285,2.31945 6.786202,13.16764 -5.049763,12.94072 l -2.14053,-2.11619 z m 59.37123,-12.39261 c 3.55333,-5.25013 9.05135,-20.06651 2.71837,-22.11875 -3.05334,3.3267 -7.6371,24.71422 -2.71837,22.11875 z M 91.5379,232.44358 c 2.602494,-7.47266 -9.591979,-14.06169 -4.98432,-2.07822 -0.03829,2.27935 3.678991,5.00542 4.98432,2.07822 z m 162.64804,5.06338 c -3.42185,-9.79775 -2.76119,-19.6792 -10.00395,-27.2457 -1.16168,-6.36869 3.86924,-23.194 -6.26998,-10.64748 -9.6147,10.59563 0.76651,31.0404 -12.94644,37.85165 -5.32668,-4.45574 -17.09871,-13.36669 -2.65197,-11.94847 11.69768,-6.16021 3.10794,-23.58031 8.97619,-33.63197 5.84784,-6.47297 18.07677,-15.41845 10.33555,-25.71938 -1.10775,-9.39769 -9.25206,-20.79669 -0.93683,-30.06459 5.49829,-4.52852 12.98521,-14.2882 21.74028,-11.71013 8.06403,-4.34595 16.24676,-5.13505 18.56866,-15.7991 5.2898,-2.4037 13.26124,-6.05404 11.0408,-9.834842 8.92058,-1.768489 12.96763,-9.695184 8.28858,-13.75 1.05734,-7.609311 10.50471,-13.79239 3.23128,-20.501848 -0.37005,-9.853471 10.78853,-14.44889 14.4293,-5.219118 -0.56877,10.327859 -6.55051,20.459896 -1.52099,31.862405 8.30608,-5.853106 14.37511,11.416203 5.28146,7.608561 -11.62772,-0.213253 11.32305,6.087942 13.57012,10.691912 8.86053,1.58734 1.00311,27.60961 19.14071,26.11751 10.61763,-3.35012 21.22275,-11.15502 27.78917,-20.8329 8.85358,-3.82536 -3.63764,-11.52494 4.43904,-14.52726 -0.97974,-3.808284 12.37032,3.02241 16.33149,3.53481 3.79438,2.06754 11.01249,-4.680419 15.47519,4.36639 2.81321,11.47668 -16.05377,7.33351 -21.09131,17.43735 -9.12571,7.88251 -12.49714,19.73086 -22.90641,26.49843 -10.23175,6.31473 -16.74675,10.8466 -30.62191,11.11434 -12.07679,7.3363 -3.95445,24.23402 -0.0103,35.24822 3.29225,11.57134 5.12634,29.04799 18.9618,31.97394 1.35981,13.41114 -17.75338,11.01761 -21.12008,-0.0376 10.70841,-1.45694 -0.63368,-15.21034 -0.55944,-20.41974 -4.69047,-9.00706 -7.49895,-18.8855 -11.80293,-28.66878 -8.24002,-8.27532 -14.46788,13.47537 -18.09513,18.9805 -2.20764,7.33246 -15.26119,19.14185 -9,29.52291 10.24771,16.23261 -19.76409,12.13138 -8.51506,-2.57871 3.78643,-8.16713 4.64208,-21.32066 8.6583,-29.29629 0.45039,-6.91016 17.08862,-24.30667 -1.34185,-20.66616 -11.78252,0.41966 -24.705,-0.72839 -33.67899,-7.87025 -5.02878,12.37488 -17.22495,22.56049 -15.19632,37.45147 -0.26887,14.11358 9.93766,23.64613 17.21959,33.37187 -4.67227,0.57035 -12.24439,2.27252 -15.20761,-2.66193 z" />
  </g>
</svg>
